<svg version="1.1" id="Layer_1" xmlns="http://www.w3.org/2000/svg" xmlns:xlink="http://www.w3.org/1999/xlink" x="0px" y="0px"
	 width="100%" viewBox="0 0 2000 2000" enable-background="new 0 0 2000 2000" xml:space="preserve">

<path fill="#00173A" opacity="1.000000" stroke="none"
	d="
M298.328979,967.629211
	C297.541626,965.528015 296.754303,963.426819 295.966949,961.325623
	C296.237885,961.107544 296.508789,960.889526 296.779724,960.671448
	C299.731018,963.370850 302.682281,966.070312 305.633575,968.769775
	C305.972717,968.587402 306.311890,968.404968 306.651062,968.222595
	C306.040863,965.303894 305.430634,962.385193 304.721802,958.994568
	C306.667816,959.266174 308.193512,959.479065 308.553833,959.529297
	C309.556274,954.705078 310.604340,950.216431 311.352356,945.678345
	C311.543915,944.516052 310.997711,943.090393 310.427551,941.970459
	C308.540253,938.263367 306.427399,934.671326 304.526611,930.970703
	C303.747925,929.454590 303.289886,927.773743 302.349457,925.273010
	C304.814148,925.963257 306.170227,926.343079 307.920288,926.833191
	C307.920288,925.478333 307.920288,924.285583 307.920288,922.302063
	C310.790283,923.757874 313.047974,924.903137 315.981781,926.391296
	C315.522614,923.582397 315.323517,921.469727 314.814636,919.434570
	C313.686188,914.921326 313.441498,911.001038 318.487335,908.303650
	C319.579132,907.720093 319.909607,904.612976 319.611481,902.832153
	C319.301636,900.981323 317.773315,899.346130 316.834991,897.586121
	C315.607635,895.283997 315.561401,893.696655 318.723816,892.786194
	C320.078186,892.396301 321.594574,890.546997 321.950531,889.094421
	C322.972107,884.925720 325.762299,883.201721 329.544983,883.171265
	C346.873383,883.031860 364.203339,883.067993 381.532715,883.081421
	C384.729736,883.083923 385.972260,884.544434 385.234222,887.892395
	C382.081970,902.191956 379.198730,916.551941 375.926117,930.823059
	C374.995026,934.883301 373.979095,939.452515 367.931122,939.921875
	C368.701111,941.887024 369.791779,943.520264 369.874390,945.202942
	C369.958069,946.907227 369.564026,949.614929 368.469452,950.210327
	C365.387238,951.886719 365.780518,953.910767 366.604126,956.473328
	C367.560303,959.448242 368.189606,962.420532 364.048828,963.520325
	C369.891876,976.694824 378.575256,985.627197 394.504883,984.710815
	C394.746216,983.500793 395.114380,981.654724 395.613464,979.152222
	C401.387146,981.038940 406.862946,982.874634 412.368622,984.615784
	C419.204559,986.777588 425.495087,983.871033 431.699951,981.884888
	C433.325775,981.364441 434.420135,977.900391 435.000610,975.597168
	C440.411011,954.129456 445.602478,932.606689 450.979736,911.130493
	C452.717346,904.190735 454.876465,897.357544 456.729828,890.445312
	C457.884796,886.137756 460.511108,884.093994 464.999664,884.015198
	C480.472992,883.743591 495.942932,883.263428 511.416779,883.041748
	C519.710327,882.922913 520.296509,883.782471 518.318909,891.579346
	C503.503174,949.992493 488.713104,1008.412170 473.822693,1066.806274
	C469.998810,1081.802002 465.741760,1096.687256 461.904022,1111.679565
	C460.673950,1116.484985 457.840485,1118.854126 453.111694,1118.878418
	C437.115570,1118.960693 421.117584,1119.022217 405.123016,1118.846313
	C400.207275,1118.792358 398.393433,1116.348267 399.405304,1111.667847
	C400.424042,1106.955933 401.859497,1102.332397 403.170105,1097.686646
	C403.389954,1096.907349 403.710052,1095.900391 404.311951,1095.526001
	C408.872772,1092.688721 411.128967,1089.181641 408.712585,1083.678833
	C408.482178,1083.154175 410.241180,1081.756104 411.560059,1080.188965
	C408.943359,1076.447266 405.953796,1072.172241 402.357239,1067.029297
	C405.150330,1067.450806 406.954071,1067.723022 409.075653,1068.043213
	C409.662750,1066.035889 410.198273,1064.204834 410.921631,1061.731445
	C413.774658,1063.138062 416.324951,1064.395386 419.863800,1066.140015
	C419.069153,1063.866333 418.390015,1062.582520 418.188995,1061.227661
	C417.515411,1056.688477 416.712067,1052.136353 416.518677,1047.565552
	C416.262817,1041.517334 416.539825,1035.446533 416.578583,1029.385498
	C416.592896,1027.147583 416.580902,1024.909424 416.580902,1021.338074
	C411.879639,1018.976013 405.852631,1015.947876 398.368927,1012.187805
	C400.274323,1017.796692 401.706421,1022.012268 403.171417,1026.324707
	C400.713470,1026.498169 398.634735,1026.644897 395.240356,1026.884399
	C398.145660,1031.053467 400.299438,1034.144165 402.453247,1037.234863
	C402.145996,1037.543335 401.838715,1037.851685 401.531464,1038.160034
	C400.427887,1037.397705 399.364044,1036.567017 398.208435,1035.894043
	C397.226440,1035.322144 395.426575,1034.302490 395.203156,1034.555054
	C391.298370,1038.971191 389.376709,1033.912842 386.698547,1032.853149
	C383.729004,1031.677979 380.678436,1030.574707 377.951416,1028.954834
	C374.842133,1027.107788 372.037811,1024.742676 369.128204,1022.566406
	C367.971710,1021.701477 366.888336,1020.738831 365.771667,1019.820679
	C365.425079,1020.098511 365.078491,1020.376404 364.731903,1020.654236
	C370.110962,1027.754150 375.490051,1034.854126 380.869141,1041.954102
	C380.252686,1042.474609 379.636230,1042.995117 379.019775,1043.515625
	C370.411591,1036.412476 363.842499,1027.170776 354.651764,1018.341614
	C354.212646,1020.054260 353.831268,1021.541748 353.399261,1023.226685
	C350.659027,1020.653503 349.170380,1019.255615 347.681702,1017.857727
	C347.277191,1018.049194 346.872711,1018.240723 346.468201,1018.432190
	C346.851776,1019.975647 346.823425,1021.817505 347.688690,1023.012024
	C351.967438,1028.918945 356.555328,1034.601074 360.877625,1040.477539
	C362.559296,1042.764038 363.829895,1045.352783 365.287781,1047.803833
	C364.799988,1048.162842 364.312195,1048.521973 363.824402,1048.880981
	C362.378845,1048.264404 360.933289,1047.647705 359.516479,1047.043335
	C354.390656,1054.534424 350.003235,1044.445068 344.185913,1047.196533
	C343.761688,1049.130859 343.217133,1051.985474 342.505707,1054.797852
	C337.688843,1073.839478 332.792328,1092.860840 328.026367,1111.915039
	C326.789551,1116.859863 324.027344,1119.100830 318.801514,1119.043335
	C303.305878,1118.872803 287.806946,1119.031738 272.309723,1118.963745
	C264.762634,1118.930542 264.050903,1117.938110 265.851807,1110.790405
	C274.068390,1078.179443 282.164154,1045.536987 290.611908,1012.986023
	C292.437744,1005.950745 293.233398,999.346741 289.774902,992.688293
	C289.270508,991.717224 289.169403,990.536682 288.734741,988.899780
	C291.039368,989.347961 292.857147,989.701416 295.260254,990.168762
	C294.424591,988.017273 293.791779,986.388062 292.987976,984.318604
	C294.334229,984.140564 295.479126,983.989136 296.772797,983.817993
	C296.174866,979.818237 296.027710,975.816833 294.879944,972.126648
	C293.989563,969.264038 294.023529,968.011108 297.684662,968.151428
	C298.231171,968.257141 298.361664,968.288147 298.492188,968.319092
	C298.437775,968.089111 298.383362,967.859192 298.328979,967.629211
z"/>
<path fill="#0D2243" opacity="1.000000" stroke="none"
	d="
M907.291016,997.710205
	C912.316406,1022.105835 917.116028,1046.158081 922.226868,1071.769897
	C927.071533,1065.029907 931.078796,1059.612061 934.921387,1054.079956
	C947.258362,1036.318726 959.724915,1018.642029 971.709778,1000.645142
	C975.007568,995.693115 979.142639,995.682373 983.828247,996.174438
	C987.696594,996.580627 986.333923,999.505737 985.840027,1001.559448
	C983.311768,1012.073059 980.614929,1022.545959 977.995483,1033.037720
	C972.595215,1054.667236 967.283630,1076.319580 961.696533,1097.900635
	C961.127686,1100.097900 959.281128,1103.100830 957.429749,1103.627075
	C950.466064,1105.606323 948.607605,1103.447021 950.362122,1096.424927
	C956.048340,1073.668213 961.740112,1050.912842 967.421814,1028.154907
	C967.573975,1027.545410 967.635498,1026.913330 966.879517,1025.737915
	C964.532410,1028.930664 962.113708,1032.073730 959.850220,1035.324707
	C948.349121,1051.843628 936.800659,1068.331055 925.485596,1084.976807
	C923.151245,1088.411133 920.170349,1090.023193 916.711304,1088.592529
	C914.871765,1087.831787 913.302490,1084.866089 912.815491,1082.632935
	C909.059875,1065.413452 905.605164,1048.128174 902.037231,1030.867554
	C901.712097,1029.294556 901.248108,1027.750366 899.815857,1026.127686
	C898.224854,1032.338989 896.602478,1038.542603 895.048828,1044.763184
	C890.614319,1062.518433 886.229492,1080.286133 881.768188,1098.034546
	C881.050476,1100.889648 880.615479,1103.848022 876.388306,1104.022705
	C869.692871,1104.299805 868.619019,1103.304443 870.250244,1096.796265
	C878.056763,1065.651123 885.878174,1034.509644 893.712280,1003.371338
	C895.684387,995.533142 899.306152,993.927002 907.291016,997.710205
z"/>
<path fill="#0D2243" opacity="1.000000" stroke="none"
	d="
M1144.620117,1092.410034
	C1134.769165,1068.019653 1125.069946,1043.982178 1114.768311,1018.451782
	C1113.810669,1021.158325 1113.199951,1022.527405 1112.838501,1023.959473
	C1106.570435,1048.792114 1100.395630,1073.648682 1093.972656,1098.441040
	C1093.447266,1100.469238 1091.576660,1103.206055 1089.817383,1103.671631
	C1082.747681,1105.542114 1081.133423,1103.662720 1082.908203,1096.526367
	C1090.654663,1065.376709 1098.398804,1034.226318 1106.214478,1003.093933
	C1107.027588,999.855347 1107.158691,996.102051 1112.251465,995.938049
	C1117.017090,995.784607 1119.776978,997.030457 1121.636841,1001.881958
	C1131.281372,1027.040649 1141.298828,1052.056641 1151.212891,1077.111694
	C1151.816162,1078.636230 1152.649536,1080.069702 1154.018921,1082.851685
	C1154.948853,1080.009888 1155.624878,1078.312500 1156.060913,1076.555542
	C1162.230591,1051.699951 1168.442627,1026.854370 1174.440674,1001.957336
	C1175.471802,997.676941 1177.358521,995.686462 1181.920532,995.947144
	C1187.203613,996.248962 1187.801147,996.698975 1186.541504,1001.831604
	C1183.647583,1013.622559 1180.703491,1025.401367 1177.760620,1037.180176
	C1172.802124,1057.026611 1167.856567,1076.876221 1162.835449,1096.706665
	C1161.968506,1100.130249 1161.803589,1103.979858 1156.450928,1104.089233
	C1151.506104,1104.190308 1147.974731,1103.232056 1146.761475,1097.871826
	C1146.362549,1096.109009 1145.449707,1094.462646 1144.620117,1092.410034
z"/>
<path fill="#0D2243" opacity="1.000000" stroke="none"
	d="
M1517.220459,998.151611
	C1518.844849,997.195923 1520.319824,996.097290 1521.781738,996.114685
	C1536.081055,996.284790 1550.415527,996.104004 1564.665894,997.091675
	C1579.728638,998.135681 1587.546387,1009.374573 1584.647339,1024.321655
	C1581.957520,1038.190552 1575.221069,1049.160400 1561.830688,1055.006958
	C1557.791870,1056.770264 1556.983521,1059.154175 1558.192993,1063.213867
	C1561.373291,1073.888916 1564.400391,1084.616211 1567.138794,1095.411499
	C1567.817261,1098.085938 1571.323730,1101.974731 1566.072998,1103.731567
	C1559.756104,1105.845459 1555.659912,1103.652222 1554.216309,1098.035767
	C1551.401367,1087.084717 1548.487061,1076.156006 1545.906128,1065.149414
	C1544.869019,1060.727173 1542.919189,1058.625732 1538.089355,1058.917969
	C1531.948486,1059.289673 1525.750854,1059.288086 1519.609741,1058.916626
	C1514.755981,1058.623291 1512.895142,1060.745850 1511.885010,1065.193726
	C1509.344238,1076.380859 1506.264160,1087.444946 1503.687988,1098.624756
	C1502.705444,1102.888916 1500.431152,1104.153931 1496.293457,1104.063599
	C1491.863403,1103.967041 1490.852905,1102.382568 1491.921387,1098.168213
	C1500.218262,1065.446167 1508.365234,1032.686157 1516.565796,999.939575
	C1516.686646,999.457153 1516.896729,998.997009 1517.220459,998.151611
M1567.817993,1037.217529
	C1569.381958,1033.744385 1571.414673,1030.401123 1572.419922,1026.773193
	C1575.169678,1016.849426 1570.649048,1008.715759 1560.682373,1007.657532
	C1550.303345,1006.555603 1539.731201,1007.071228 1529.254761,1007.332764
	C1527.908325,1007.366394 1525.909790,1009.924133 1525.438110,1011.647705
	C1522.585693,1022.073975 1520.142456,1032.611206 1517.444214,1043.080933
	C1516.549194,1046.553833 1517.517456,1048.068970 1521.229858,1048.017334
	C1529.059692,1047.908447 1536.901367,1047.755127 1544.721069,1048.061035
	C1554.098633,1048.427612 1561.595703,1045.096802 1567.817993,1037.217529
z"/>
<path fill="#0D2243" opacity="1.000000" stroke="none"
	d="
M1198.999756,1052.003174
	C1203.036133,1035.799683 1207.011963,1020.006409 1210.957764,1004.205627
	C1213.000977,996.023926 1212.985107,995.768921 1221.604248,996.058350
	C1234.869019,996.503906 1248.182617,996.755981 1261.359741,998.168945
	C1272.914917,999.407898 1280.689819,1009.612671 1280.125244,1020.763794
	C1279.171265,1039.609253 1273.385986,1057.277954 1267.795044,1074.972168
	C1266.201294,1080.016235 1262.831665,1084.758423 1259.395996,1088.910522
	C1250.487183,1099.677246 1237.997925,1103.187622 1224.729858,1103.860840
	C1213.771240,1104.416870 1202.759888,1103.852295 1191.776978,1104.052856
	C1187.285889,1104.134766 1186.285278,1102.444702 1187.346191,1098.333740
	C1191.290894,1083.047607 1195.079590,1067.721313 1198.999756,1052.003174
M1204.742554,1077.144775
	C1203.846558,1080.687988 1203.042358,1084.257690 1202.028931,1087.767090
	C1200.971069,1091.430298 1202.078979,1093.073486 1206.014893,1093.008789
	C1213.501099,1092.885620 1221.000244,1093.200806 1228.476807,1092.902832
	C1242.155273,1092.357666 1253.401001,1084.327515 1257.235596,1071.270996
	C1261.535034,1056.631836 1265.028564,1041.740234 1268.408691,1026.853149
	C1270.121826,1019.308289 1264.347412,1010.201294 1256.659668,1009.154053
	C1246.354736,1007.750427 1235.867554,1007.556519 1225.447021,1007.279480
	C1224.012207,1007.241394 1221.586548,1009.470581 1221.179565,1011.051758
	C1215.589600,1032.767456 1210.273682,1054.553833 1204.742554,1077.144775
z"/>
<path fill="#0D2243" opacity="1.000000" stroke="none"
	d="
M501.099518,1097.906250
	C493.379272,1090.307617 492.513977,1080.748169 494.426178,1071.613037
	C497.787720,1055.553955 501.564117,1039.415649 507.158081,1024.034668
	C513.302856,1007.139099 526.315796,997.222595 544.832336,996.022644
	C550.236023,995.672485 555.817871,995.500671 561.105530,996.441345
	C574.008545,998.736938 583.018860,1010.242371 580.658813,1023.403564
	C577.560364,1040.683228 573.982605,1058.098755 568.232239,1074.628296
	C559.945068,1098.449829 536.255981,1109.870605 511.862122,1103.583862
	C508.148804,1102.626831 504.870544,1099.981812 501.099518,1097.906250
M566.505127,1037.987305
	C567.016541,1035.719604 567.462830,1033.435059 568.049683,1031.187012
	C572.807129,1012.962769 558.372131,1003.703857 542.941345,1006.701111
	C529.497803,1009.312378 520.689880,1017.049622 516.736450,1029.768921
	C512.747620,1042.602051 509.376740,1055.660034 506.432953,1068.776123
	C503.399567,1082.291626 508.993805,1091.736694 520.295288,1093.775757
	C534.818726,1096.396240 549.444763,1089.945435 554.975708,1076.374023
	C559.890503,1064.314453 562.577087,1051.346558 566.505127,1037.987305
z"/>
<path fill="#0D2243" opacity="1.000000" stroke="none"
	d="
M627.086060,1104.209473
	C619.092224,1103.891602 611.303650,1104.493896 604.019348,1102.854980
	C593.862366,1100.569824 588.064331,1091.861816 588.025330,1081.413452
	C587.954651,1062.453003 594.293518,1044.757690 599.837280,1027.070923
	C602.070312,1019.946716 606.917236,1012.969055 612.275757,1007.632996
	C624.610779,995.349426 640.336792,992.968384 656.695557,996.984314
	C669.847107,1000.213013 676.446777,1009.808105 674.439880,1023.316101
	C671.699402,1041.761719 666.766357,1060.100830 660.676514,1077.762451
	C655.540344,1092.658325 643.342468,1101.325928 627.086060,1104.209473
M608.502136,1036.068115
	C607.753479,1038.961670 606.866821,1041.827759 606.280945,1044.753906
	C604.137329,1055.459351 601.331604,1066.108398 600.243652,1076.926270
	C599.299988,1086.309814 605.592285,1092.560059 614.905090,1093.854248
	C629.859436,1095.932373 644.341187,1089.388306 649.500916,1075.228271
	C655.319336,1059.260254 659.273499,1042.498779 662.659058,1025.802612
	C664.601746,1016.222168 658.366394,1009.474854 648.806885,1006.927734
	C641.813293,1005.064331 635.279663,1006.462097 628.900940,1009.109863
	C617.214050,1013.961060 611.760071,1023.710083 608.502136,1036.068115
z"/>
<path fill="#0D2243" opacity="1.000000" stroke="none"
	d="
M863.955444,996.019043
	C869.876953,996.509399 870.078491,996.779541 868.635864,1002.573059
	C862.688538,1026.457153 856.704041,1050.332031 850.769897,1074.219360
	C848.725647,1082.448486 846.848022,1090.719482 844.778625,1098.942139
	C843.633301,1103.492920 837.575867,1106.058228 833.885376,1103.346313
	C832.917358,1102.634888 832.644165,1100.093018 832.993225,1098.613892
	C835.781677,1086.799805 838.809204,1075.042236 841.737122,1063.260742
	C843.393127,1056.597534 842.980286,1056.033447 836.161133,1056.015625
	C822.834045,1055.980591 809.504150,1056.159546 796.181213,1055.923584
	C791.815735,1055.846313 789.962830,1057.601562 789.012573,1061.634033
	C786.113831,1073.935425 782.987854,1086.183594 779.902161,1098.440430
	C778.636902,1103.466431 773.737183,1106.025269 769.373718,1103.493408
	C768.288269,1102.863647 767.896667,1099.748535 768.302490,1098.041016
	C771.724426,1083.642212 775.416748,1069.307739 779.006287,1054.948608
	C783.402527,1037.362183 787.737976,1019.760498 792.206726,1002.192627
	C792.861450,999.618591 792.911377,996.526794 796.879639,996.043823
	C803.886658,995.190857 805.371460,996.648621 803.675293,1003.458191
	C800.700867,1015.399841 797.844604,1027.373291 794.662842,1039.259521
	C793.551758,1043.410156 794.303772,1045.098389 798.876526,1045.047241
	C812.868286,1044.890381 826.864624,1044.863647 840.855347,1045.057861
	C845.013367,1045.115479 846.780884,1043.375000 847.689331,1039.554199
	C850.728333,1026.772705 854.023010,1014.052124 857.115112,1001.282898
	C857.963501,997.779175 859.510742,995.478271 863.955444,996.019043
z"/>
<path fill="#0D2243" opacity="1.000000" stroke="none"
	d="
M1055.618652,1013.467529
	C1058.409790,1036.335083 1061.093506,1058.763550 1063.767944,1081.192871
	C1064.476074,1087.130371 1065.180908,1093.068481 1065.837280,1099.011841
	C1066.162842,1101.960205 1065.149536,1104.166382 1061.825806,1103.867798
	C1058.593384,1103.577393 1053.911743,1105.971313 1053.104370,1100.140381
	C1052.284790,1094.220459 1051.594116,1088.277100 1051.066040,1082.324585
	C1050.782837,1079.132202 1049.162964,1078.013062 1046.182373,1078.021851
	C1032.687866,1078.061279 1019.190552,1077.913818 1005.702271,1078.207031
	C1003.844177,1078.247314 1001.425720,1079.966675 1000.309082,1081.614868
	C996.676025,1086.977173 993.571045,1092.694458 990.179382,1098.223999
	C986.358276,1104.453247 982.686218,1105.574585 974.447266,1102.655762
	C976.545166,1099.046143 978.494934,1095.505249 980.616272,1092.070435
	C999.405945,1061.647339 1018.230652,1031.245850 1037.031250,1000.829590
	C1039.686523,996.533813 1047.432861,994.089417 1051.748413,996.598816
	C1052.889282,997.262207 1053.627563,999.206177 1053.889526,1000.679688
	C1054.615356,1004.762878 1054.992676,1008.907959 1055.618652,1013.467529
M1047.031128,1043.406494
	C1045.920898,1032.949707 1044.810669,1022.492920 1043.700439,1012.036133
	C1043.286621,1011.930176 1042.872925,1011.824158 1042.459106,1011.718140
	C1031.591919,1029.733154 1020.724670,1047.748047 1009.164978,1066.910889
	C1022.621094,1066.910889 1034.398438,1067.011963 1046.166382,1066.724854
	C1047.141602,1066.701172 1048.912720,1064.009399 1048.845703,1062.628418
	C1048.548218,1056.509644 1047.714478,1050.416870 1047.031128,1043.406494
z"/>
<path fill="#0D2243" opacity="1.000000" stroke="none"
	d="
M1471.000366,1064.003418
	C1472.353516,1075.837524 1473.752563,1087.214233 1474.957642,1098.611694
	C1475.175537,1100.672363 1476.167969,1103.874023 1472.359375,1103.828735
	C1468.713623,1103.785400 1463.732788,1105.918579 1462.620728,1099.933350
	C1461.743652,1095.213501 1461.350220,1090.384644 1461.029785,1085.584961
	C1460.586060,1078.941528 1459.853516,1078.038086 1453.357056,1078.017212
	C1441.359253,1077.978882 1429.359253,1078.132080 1417.364380,1077.942627
	C1413.378418,1077.879639 1410.760376,1079.293701 1408.826538,1082.697754
	C1405.950928,1087.759155 1402.905518,1092.726074 1399.853394,1097.684570
	C1395.663696,1104.491333 1392.811279,1105.476929 1383.829468,1102.907471
	C1385.922974,1099.246826 1387.833740,1095.673706 1389.956177,1092.230957
	C1408.550537,1062.069580 1427.165527,1031.920654 1445.833740,1001.804626
	C1447.539062,999.053467 1449.002197,996.115662 1453.207153,995.954712
	C1462.375122,995.603943 1463.109375,996.463196 1464.087158,1005.653625
	C1466.143433,1024.979248 1468.655151,1044.256348 1471.000366,1064.003418
M1435.827148,1038.321045
	C1430.355713,1047.421875 1424.884277,1056.522705 1418.671997,1066.855591
	C1432.264648,1066.855591 1444.015503,1066.958740 1455.756592,1066.669922
	C1456.748535,1066.645508 1458.600220,1063.922363 1458.489380,1062.582275
	C1457.479980,1050.369873 1456.173828,1038.180908 1454.842896,1025.997192
	C1454.351807,1021.501221 1453.564575,1017.037598 1452.912354,1012.559143
	C1452.472534,1012.502991 1452.032715,1012.446838 1451.592896,1012.390625
	C1446.452881,1020.821106 1441.312866,1029.251465 1435.827148,1038.321045
z"/>
<path fill="#0D2243" opacity="1.000000" stroke="none"
	d="
M1632.384766,1009.403931
	C1633.991211,1006.839661 1635.705566,1004.715942 1636.758179,1002.303467
	C1639.138184,996.847839 1643.214600,995.502136 1648.813477,995.901184
	C1652.774170,996.183472 1654.493896,997.769104 1654.926392,1001.530090
	C1658.645874,1033.876587 1662.391846,1066.220215 1666.218140,1098.554321
	C1666.539307,1101.267578 1667.066162,1103.994263 1663.268677,1103.815430
	C1659.892822,1103.656494 1654.989014,1106.172607 1654.022217,1100.149536
	C1653.128540,1094.581421 1652.412720,1088.961792 1652.063721,1083.337280
	C1651.827515,1079.529785 1650.274414,1077.983154 1646.526367,1078.004272
	C1633.529785,1078.077637 1620.531494,1078.125122 1607.536621,1077.961914
	C1603.981567,1077.917358 1602.026855,1079.653198 1600.394043,1082.382202
	C1597.319092,1087.521240 1594.152588,1092.605347 1591.085449,1097.748901
	C1587.035278,1104.541138 1584.355225,1105.531006 1574.934448,1102.630737
	C1594.142334,1071.460327 1613.167358,1040.586914 1632.384766,1009.403931
M1625.510864,1067.000000
	C1631.994263,1066.989624 1638.478760,1066.900269 1644.960449,1066.997803
	C1648.974365,1067.058228 1650.225586,1065.131836 1649.813599,1061.383423
	C1648.456055,1049.030884 1647.221313,1036.664795 1645.876709,1024.310669
	C1645.457153,1020.454285 1644.838867,1016.619507 1644.311523,1012.774841
	C1643.806519,1012.626099 1643.301392,1012.477417 1642.796387,1012.328735
	C1632.061035,1030.085815 1621.325684,1047.842773 1610.590454,1065.599854
	C1610.957642,1066.066528 1611.324951,1066.533325 1611.692261,1067.000000
	C1615.967407,1067.000000 1620.242432,1067.000000 1625.510864,1067.000000
z"/>
<path fill="#0D2243" opacity="1.000000" stroke="none"
	d="
M693.920288,1041.652832
	C690.574951,1027.078369 696.550659,1011.322083 709.340637,1003.621460
	C727.372070,992.764954 746.098633,991.921570 764.695557,1002.582642
	C766.796204,1003.786926 771.232300,1004.734985 768.315918,1009.045166
	C764.309143,1014.966675 761.369019,1016.159363 757.464661,1013.244446
	C742.665405,1002.195740 723.148560,1005.365784 713.863281,1013.701111
	C710.645386,1016.589783 707.884277,1020.503906 706.216492,1024.493774
	C702.881409,1032.472046 705.362793,1037.758911 713.525635,1040.539673
	C720.119690,1042.786011 727.003784,1044.180664 733.757935,1045.957764
	C736.169373,1046.592163 738.616882,1047.120117 740.980103,1047.901855
	C755.071777,1052.563354 759.531006,1061.531616 755.203613,1075.782471
	C751.682312,1087.378540 744.441711,1095.816650 733.325928,1100.185791
	C714.233398,1107.690430 695.350891,1107.742676 677.489380,1096.222168
	C674.922852,1094.566772 671.338684,1092.737793 674.748901,1088.909790
	C680.248230,1082.736938 681.281860,1082.286865 685.419983,1085.650269
	C700.349854,1097.784668 726.249939,1097.118286 738.078003,1084.093384
	C741.349915,1080.490479 743.175598,1075.231812 744.624695,1070.419556
	C745.891174,1066.213867 741.205688,1060.804932 735.272705,1059.038696
	C728.745667,1057.095703 722.022583,1055.817383 715.473267,1053.941040
	C710.546875,1052.529663 705.530762,1051.082886 700.996643,1048.781128
	C698.253113,1047.388306 696.353088,1044.333984 693.920288,1041.652832
z"/>
<path fill="#0D2243" opacity="1.000000" stroke="none"
	d="
M1731.000122,1034.001465
	C1738.163208,1025.359131 1745.148438,1017.023804 1752.971924,1007.688232
	C1749.812988,1007.374023 1747.944580,1007.034912 1746.074829,1007.027039
	C1733.752930,1006.975159 1721.429932,1007.060913 1709.109253,1006.927917
	C1706.958618,1006.904724 1703.290405,1008.022095 1703.810669,1003.846130
	C1704.229980,1000.480957 1703.979858,996.039551 1709.456787,996.042603
	C1728.106201,996.053162 1746.755615,996.056702 1765.405029,996.024780
	C1768.700928,996.019104 1770.390869,997.489075 1768.951660,1000.612915
	C1767.179810,1004.458862 1765.298584,1008.434265 1762.624268,1011.656128
	C1741.517456,1037.083618 1720.201782,1062.337769 1698.983032,1087.672485
	C1697.639038,1089.277100 1696.566772,1091.109009 1694.794800,1093.660522
	C1697.538818,1093.802246 1699.442993,1093.981812 1701.347412,1093.985840
	C1714.502075,1094.013794 1727.657471,1093.942627 1740.810913,1094.071045
	C1742.962524,1094.092163 1746.518188,1092.939087 1746.225220,1097.078369
	C1745.994507,1100.338989 1745.553589,1103.963745 1740.777954,1103.957520
	C1721.296143,1103.931763 1701.814209,1103.953491 1682.332397,1103.938110
	C1678.715820,1103.935181 1677.214722,1101.900269 1678.734253,1098.772949
	C1680.507568,1095.123047 1682.670654,1091.542480 1685.262451,1088.429932
	C1700.351929,1070.308472 1715.616699,1052.333252 1731.000122,1034.001465
z"/>
<path fill="#0D2243" opacity="1.000000" stroke="none"
	d="
M1360.372070,1032.392578
	C1362.145630,1025.385132 1363.672485,1018.737610 1365.482666,1012.168091
	C1366.515015,1008.421265 1365.485229,1006.900452 1361.534302,1006.974487
	C1354.542480,1007.105469 1347.545654,1007.029236 1340.551758,1006.961914
	C1338.078003,1006.938110 1334.901001,1007.174622 1335.381348,1003.406555
	C1335.774292,1000.323242 1335.702148,996.349365 1340.484619,996.093933
	C1341.315796,996.049561 1342.148682,996.013306 1342.980713,996.013184
	C1364.297485,996.009033 1385.614258,995.980164 1406.930786,996.054321
	C1409.207031,996.062195 1412.364502,995.191040 1412.578857,999.122681
	C1412.811279,1003.383911 1410.343140,1006.825378 1406.778320,1006.904907
	C1399.620605,1007.064575 1392.444702,1007.253174 1385.301025,1006.912231
	C1380.247559,1006.671082 1378.010620,1008.401428 1376.787720,1013.481445
	C1370.056274,1041.443481 1362.968750,1069.320068 1355.920898,1097.205078
	C1355.194824,1100.077881 1355.302246,1103.622070 1350.738403,1103.984253
	C1343.863037,1104.530151 1342.625366,1103.325806 1344.287720,1096.659546
	C1349.597778,1075.365967 1354.924072,1054.076416 1360.372070,1032.392578
z"/>

</svg>
